<svg width="100" height="100" viewBox="0 0 100 100" fill="none" xmlns="http://www.w3.org/2000/svg">
<path d="M90.3226 43.5016C96.1855 39.0823 100 32.0839 100 24.1935C100 10.8532 89.1468 0 75.8064 0C62.4661 0 51.6129 10.8532 51.6129 24.1935C51.6129 24.7387 51.6597 25.271 51.6952 25.8065H11.2903C6.84355 25.8065 3.22581 29.4242 3.22581 33.871V83.871H0V91.9355C0 96.3823 3.61774 100 8.06452 100H85.4839C89.9306 100 93.5484 96.3823 93.5484 91.9355V83.871H90.3226V43.5016ZM75.8064 3.22581C87.3677 3.22581 96.7742 12.6323 96.7742 24.1935C96.7742 35.7548 87.3677 45.1613 75.8064 45.1613C64.2452 45.1613 54.8387 35.7548 54.8387 24.1935C54.8387 12.6323 64.2452 3.22581 75.8064 3.22581ZM75.8064 48.3871C77.4629 48.3871 79.0806 48.2177 80.6452 47.9V77.4194H12.9032V35.4839H54.4258C58.4887 43.1484 66.5435 48.3871 75.8064 48.3871ZM6.45161 33.871C6.45161 31.2032 8.62258 29.0323 11.2903 29.0323H52.1C52.3258 30.1403 52.6516 31.2097 53.0242 32.2581H12.9032C11.1242 32.2581 9.67742 33.7048 9.67742 35.4839V77.4194C9.67742 79.1984 11.1242 80.6452 12.9032 80.6452H80.6452C82.4242 80.6452 83.871 79.1984 83.871 77.4194V46.9758C84.9839 46.5806 86.0661 46.1226 87.0968 45.5758V83.871H6.45161V33.871ZM56.1548 87.0968C55.4871 88.9694 53.7129 90.3226 51.6129 90.3226H41.9355C39.8355 90.3226 38.0613 88.9694 37.3935 87.0968H56.1548ZM90.3226 91.9355C90.3226 94.6032 88.1516 96.7742 85.4839 96.7742H8.06452C5.39677 96.7742 3.22581 94.6032 3.22581 91.9355V87.0968H34.0339C34.7839 90.7726 38.0403 93.5484 41.9355 93.5484H51.6129C55.5065 93.5484 58.7645 90.7726 59.5145 87.0968H90.3226V91.9355Z" fill="white"/>
</svg>
