<svg width="90" height="100" viewBox="0 0 90 100" fill="none" xmlns="http://www.w3.org/2000/svg">
<path d="M87.33 15.2447H80.53V10.6023C80.53 9.71377 80.2487 8.86167 79.748 8.23341C79.2473 7.60515 78.5681 7.2522 77.86 7.2522H71.06V3.35006C71.06 2.46157 70.7787 1.60947 70.278 0.981211C69.7773 0.352952 69.0981 0 68.39 0H21.59C20.8819 0 20.2028 0.352952 19.702 0.981211C19.2013 1.60947 18.92 2.46157 18.92 3.35006V7.26474H12.12C11.4119 7.26474 10.7328 7.6177 10.232 8.24595C9.73132 8.87421 9.45002 9.72631 9.45002 10.6148V15.2572H2.67002C2.31855 15.2572 1.97053 15.3443 1.64594 15.5134C1.32135 15.6826 1.02656 15.9304 0.778499 16.2429C0.530436 16.5553 0.333974 16.9261 0.200383 17.334C0.0667925 17.7419 -0.00129765 18.1788 1.87283e-05 18.6198V76.5245C1.87283e-05 76.9644 0.0690803 77.4 0.20326 77.8065C0.33744 78.2129 0.534111 78.5822 0.782044 78.8933C1.02998 79.2044 1.32431 79.4512 1.64825 79.6195C1.97219 79.7879 2.31939 79.8745 2.67002 79.8745H9.47002V87.0264C9.47002 87.9148 9.75132 88.7669 10.252 89.3952C10.7528 90.0235 11.4319 90.3764 12.14 90.3764H18.94V96.6499C18.94 97.5384 19.2213 98.3905 19.722 99.0188C20.2228 99.647 20.9019 100 21.61 100H68.41C69.1181 100 69.7973 99.647 70.298 99.0188C70.7987 98.3905 71.08 97.5384 71.08 96.6499V90.3764H77.88C78.5881 90.3764 79.2673 90.0235 79.768 89.3952C80.2687 88.7669 80.55 87.9148 80.55 87.0264V79.8745H87.35C88.0547 79.8679 88.7287 79.512 89.2251 78.8845C89.7215 78.257 90 77.4086 90 76.5245V18.6198C90.0027 18.1778 89.9355 17.7395 89.8025 17.3301C89.6695 16.9208 89.4733 16.5485 89.2251 16.2347C88.9769 15.921 88.6817 15.672 88.3564 15.5021C88.0312 15.3321 87.6823 15.2447 87.33 15.2447ZM86.24 75.0816H80.54V19.8745H86.24V75.0816ZM76.78 79.7993V85.5709H71.08V11.9824H76.78V79.862V79.7993ZM67.32 90.2886V95.1819H22.69V52.3463H67.31V90.3513L67.32 90.2886ZM3.76002 19.9624H9.46002V75.0816H3.76002V19.9624ZM13.22 79.862V11.9824H18.92V85.6336H13.22V79.862ZM67.31 8.28105V12.2208L65.15 14.931C65.0605 13.8959 64.7834 12.9002 64.34 12.0201L66.22 9.66123L67.31 8.28105ZM57.85 47.6286H55.33L57.85 44.4668L59.73 42.1079L61.61 39.7491L67.31 32.5972V36.5245L61.61 43.7139L59.73 46.0728L58.47 47.6537L57.85 47.6286ZM50.27 47.6286H48.87L50.26 45.8846L52.14 43.5257L57.84 36.3739L59.72 34.0151L61.6 31.6562L67.3 24.5044V28.4442L61.6 35.596L59.72 37.9548L57.84 40.3137L52.15 47.478L52.01 47.6537L50.27 47.6286ZM67.27 40.7026V44.6299L64.88 47.6286H61.79L67.27 40.7026ZM67.27 19.9624V20.3137L61.57 27.4655L59.69 29.8243L57.81 32.1832L52.11 39.335L50.27 41.7064L48.39 44.0652L45.55 47.6286H42.41L48.41 40.1004L50.29 37.7415L52.17 35.3827L57.87 28.2309L59.75 25.872L61.63 23.5132L64.48 19.9373L66.36 17.5784L67.36 16.3237V19.8996L67.27 19.9624ZM37.81 47.5659H36L37.9 45.1819L39.78 42.8231L41.66 40.4642L48.43 31.9699L50.31 29.611L52.19 27.2522L56.82 21.4429C57.5218 21.9985 58.3152 22.346 59.14 22.4592L57.89 24.0276L52.19 31.1794L50.31 33.5383L48.43 35.8971L41.66 44.3915L39.78 46.7503L39.13 47.5659H37.81ZM62.81 15.1819C62.8181 15.3407 62.8181 15.5 62.81 15.6587C62.8065 16.3186 62.6688 16.9664 62.41 17.5408C62.2 18.0293 61.9104 18.4568 61.56 18.7955C61.0218 19.3191 60.3611 19.6057 59.68 19.611C59.2573 19.6125 58.8388 19.5057 58.45 19.2974C57.8387 18.9345 57.3321 18.3427 57 17.6035C56.7199 17.0403 56.5806 16.3848 56.6 15.7215C56.5922 15.5627 56.5922 15.4034 56.6 15.2447C56.6718 14.496 56.915 13.7894 57.3001 13.2105C57.6852 12.6315 58.1958 12.205 58.77 11.9824C59.07 11.856 59.3836 11.7883 59.7 11.7817C60.0164 11.7881 60.3301 11.8558 60.63 11.9824C60.73 11.9824 60.83 12.0452 60.92 12.0954C61.1557 12.2277 61.3774 12.3963 61.58 12.5972C62.0165 13.0072 62.361 13.5518 62.58 14.1782C62.7036 14.5168 62.7878 14.876 62.83 15.2447L62.81 15.1819ZM50.25 21.4555L51.52 19.862L52.13 19.0966L53.4 17.5031L54.29 16.3864C54.3828 17.4246 54.6596 18.4234 55.1 19.3099L54.66 19.862L52.15 23.1368L50.27 25.4956L48.39 27.8545L41.62 36.3488L39.73 38.6951L37.85 41.054L32.62 47.6161H29.49L30.27 46.6374L32.15 44.2785L37.85 37.1267L39.73 34.7679L41.62 32.4216L48.39 23.9272L50.25 21.4555ZM64.8 7.2522L62.92 9.61104L62.68 9.91217C62.54 9.79925 62.38 9.69887 62.23 9.61104C61.6455 9.23753 61.012 8.99951 60.36 8.90841L60.87 8.26851L61.68 7.2522L63.68 4.74279H66.81L64.8 7.2522ZM58.34 7.2522L56.46 9.61104L54.58 11.9699L52 15.2447L51.3 16.123L50.12 17.6035L49.96 17.8043L48.24 19.9624L41.64 28.2434L39.76 30.6023L37.88 32.9611L32.18 40.1129L30.27 42.4592L28.39 44.8181L26.17 47.6161H23L28.36 40.8908L30.24 38.532L32.15 36.1857L37.85 29.0339L39.73 26.675L41.61 24.3162L45.07 19.9749L47 17.6035L48.88 15.2447L51.48 11.9824L53.36 9.62359L55.24 7.26474L57.24 4.75533H60.37L58.34 7.2522ZM51.88 7.2522L50 9.62359L48.12 11.9824L45.52 15.2447L43.64 17.6035L41.76 19.9624L41.62 20.138L39.74 22.4969L37.85 24.8934L32.15 32.0452L30.27 34.404L28.39 36.7629L22.69 43.9147V39.9498L28.39 32.798L30.27 30.4391L32.15 28.0803L37.85 20.9285L38.61 19.9749L39.73 18.5696L40.48 17.6286L42.36 15.2698L44.96 12.0075L46.84 9.64868L48.72 7.28984L50.72 4.78043H53.9L51.88 7.2522ZM45.42 7.2522L43.54 9.61104L41.66 11.9699L39.06 15.2321L37.18 17.591L35.3 19.9498L32.16 23.8896L30.28 26.2484L28.39 28.6575L22.69 35.8093V31.8444L28.39 24.6926L30.27 22.3839L32.15 20.0251L34 17.6035L35.88 15.2447L38.48 11.9824L40.36 9.62359L42.24 7.26474L44.24 4.75533H47.38L45.42 7.2522ZM38.96 7.2522L37.08 9.61104L35.2 11.9824L32.6 15.2447L32.16 15.7967L30.72 17.6035L30.28 18.1556L28.84 19.9624L28.4 20.5144L22.7 27.6662V23.739L25.7 19.9749L27.58 17.6161L28.39 16.5997L29.46 15.2572L30.27 14.2409L32.06 11.995L33.94 9.63614L35.82 7.27729L37.82 4.76788H41L38.96 7.2522ZM32.5 7.2522L30.62 9.61104L28.74 11.9699L28.39 12.409L26.14 15.2321L24.26 17.591L22.69 19.5609V15.6336L23 15.2447L25.6 11.9824L27.48 9.62359L29.36 7.26474L31.36 4.75533H34.5L32.5 7.2522ZM26.04 7.2522L24.16 9.61104L22.69 11.4555V7.52823L22.9 7.26474L24.9 4.75533H28.04L26.04 7.2522Z" fill="white"/>
</svg>
