<svg width="98" height="100" viewBox="0 0 98 100" fill="none" xmlns="http://www.w3.org/2000/svg">
<path d="M88.5106 8.51064H82.88C82.2049 3.70787 78.0708 0 73.0851 0H9.89362C4.4383 0 0 4.4383 0 9.89362V75.2128C0 80.1987 3.70787 84.3326 8.51064 85.0077V90.6383C8.51064 95.8004 12.7102 100 17.8723 100H88.5106C93.6728 100 97.8723 95.8004 97.8723 90.6383V17.8723C97.8723 12.7102 93.6728 8.51064 88.5106 8.51064ZM93.617 17.8723V21.2766H40.4255C39.2504 21.2766 38.2979 22.2291 38.2979 23.4043V27.6596H12.766V17.8723C12.766 15.0568 15.0568 12.766 17.8723 12.766H88.5106C91.3262 12.766 93.617 15.0568 93.617 17.8723ZM4.25532 75.2128V9.89362C4.25532 6.78468 6.78468 4.25532 9.89362 4.25532H73.0851C75.717 4.25532 77.933 6.0683 78.5511 8.51064H17.8723C12.7102 8.51064 8.51064 12.7102 8.51064 17.8723V80.6787C6.0683 80.0606 4.25532 77.8447 4.25532 75.2128ZM88.5106 95.7447H17.8723C15.0568 95.7447 12.766 93.4538 12.766 90.6383V31.9149H40.4255C41.6006 31.9149 42.5532 30.9623 42.5532 29.7872V25.5319H93.617V29.7872H51.0638C49.8889 29.7872 48.9362 30.7398 48.9362 31.9149C48.9362 33.09 49.8889 34.0426 51.0638 34.0426H93.617V90.6383C93.617 93.4538 91.3262 95.7447 88.5106 95.7447Z" fill="white"/>
</svg>
